# xmcd
#
# Track frame offsets:
# 150
# 12562
# 24037
# 41512
# 51450
# 65975
# 85537
# 96425
# 106275
# 136087
# 151050
# 164850
# 179212
# 190950
# 203512
#
# Disc length: 3059 seconds
#
#
# Revision: 0
# Processed by: cddbd v1.5.2PL0 Copyright (c) Steve Scherf et al.
# Submitted via: FreeRIP 2.945 
#
DISCID=ce0bf10f
DTITLE=Oficina de Cordas - Pernambucos Music Brazil
DYEAR=1994
DGENRE=Regional
TTITLE0=A dor de uma saudade - Edgar Morais
TTITLE1=Danca do matuto - Alfredo Medeiros
TTITLE2=Manha de Carnival - Luiz Bonfá and Antônio Maria
TTITLE3=Carabina (Rifle) - Luís Bandeira
TTITLE4=Sentimentos
TTITLE5=Sertão - Manorel Figueido
TTITLE6=Bamboleando - Ronualdo Miranda
TTITLE7=Rei do Conga - Edgar Morais
TTITLE8=Helena - Jacó do Bandolim
TTITLE9=Pesqueira - Marco Cézar and Marcos Silva de Araújo
TTITLE10=A vide e um carnival - Edgar Morais
TTITLE11=Choro triste - Alfredo Medeiros
TTITLE12=Duda no asfalto - Adalberto Cavalcanti
TTITLE13=Sentindo - Zé do Carmo
TTITLE14=Maria Eugenia - Irineu de Almeida
EXTD=Henrique Annes - guitar\nMarco Cézar - bandolim\nAdalberto Cavalcanti - bandola\nCláudio Moura - viola nordestina\nJorge Cardoso - cavaquinho\nFernando Rangel - double bass\nRaimundo Batista - percussion
EXTT0=marcha de bloco - Arr. F. Rangel
EXTT1=toada - Arr. F. Rangel
EXTT2=samba -canção  - Arr. F. Rangel
EXTT3=frevo de rua - Arr. F. Rangel
EXTT4=choro - Arr. M. Cézar
EXTT5=aboio Arr. M. Cézar
EXTT6=choro  - Arr. F. Rangel
EXTT7=maracatú -  - Arr. F. Rangel
EXTT8=waltz - Arr. H. Annes and M. Cézar
EXTT9=baião - Arr. M. Cézar
EXTT10=marcha de bloco - Arr. M. Cézar
EXTT11=choro - Arr. H. Annes
EXTT12=frevo de rua - Arr. M. Cézar
EXTT13=choro  - Arr. F. Rangel
EXTT14=waltz - Arr. H. Annes
PLAYORDER=
